<?xml version="1.0" encoding="UTF-8" standalone="no"?>
<!DOCTYPE svg PUBLIC "-//W3C//DTD SVG 1.1//EN"
 "http://www.w3.org/Graphics/SVG/1.1/DTD/svg11.dtd">
<!-- Generated by graphviz version 2.43.0 (0)
 -->
<!-- Title: automaton Pages: 1 -->
<svg width="913pt" height="147pt"
 viewBox="0.00 0.00 913.37 146.80" xmlns="http://www.w3.org/2000/svg" xmlns:xlink="http://www.w3.org/1999/xlink">
<g id="graph0" class="graph" transform="scale(1 1) rotate(0) translate(4 142.8)">
<title>automaton</title>
<polygon fill="white" stroke="transparent" points="-4,4 -4,-142.8 909.37,-142.8 909.37,4 -4,4"/>
<text text-anchor="middle" x="452.69" y="-123.6" font-family="Times,serif" font-size="14.00">FULL_STACK_DEVELOPER &#45; Minimal DFA</text>
<!-- start -->
<g id="node1" class="node">
<title>start</title>
<ellipse fill="black" stroke="black" cx="5.4" cy="-27.4" rx="5.4" ry="5.4"/>
</g>
<!-- D0 -->
<g id="node2" class="node">
<title>D0</title>
<ellipse fill="none" stroke="black" cx="71.2" cy="-27.4" rx="23.3" ry="23.3"/>
<text text-anchor="middle" x="71.2" y="-23.7" font-family="Helvetica,sans-Serif" font-size="14.00">D0</text>
</g>
<!-- start&#45;&gt;D0 -->
<g id="edge1" class="edge">
<title>start&#45;&gt;D0</title>
<path fill="none" stroke="black" d="M10.99,-27.4C16.69,-27.4 26.94,-27.4 37.32,-27.4"/>
<polygon fill="black" stroke="black" points="37.59,-30.9 47.59,-27.4 37.59,-23.9 37.59,-30.9"/>
</g>
<!-- D1 -->
<g id="node3" class="node">
<title>D1</title>
<ellipse fill="none" stroke="black" cx="212.99" cy="-27.4" rx="23.3" ry="23.3"/>
<text text-anchor="middle" x="212.99" y="-23.7" font-family="Helvetica,sans-Serif" font-size="14.00">D1</text>
</g>
<!-- D0&#45;&gt;D1 -->
<g id="edge2" class="edge">
<title>D0&#45;&gt;D1</title>
<path fill="none" stroke="black" d="M94.66,-27.4C117.59,-27.4 153.41,-27.4 179.44,-27.4"/>
<polygon fill="black" stroke="black" points="179.59,-30.9 189.59,-27.4 179.59,-23.9 179.59,-30.9"/>
<text text-anchor="middle" x="142.1" y="-41.4" font-family="Helvetica,sans-Serif" font-size="10.00">JAVASCRIPT</text>
<text text-anchor="middle" x="142.1" y="-30.4" font-family="Helvetica,sans-Serif" font-size="10.00">TYPESCRIPT</text>
</g>
<!-- D1&#45;&gt;D1 -->
<g id="edge3" class="edge">
<title>D1&#45;&gt;D1</title>
<path fill="none" stroke="black" d="M201.49,-47.85C199.53,-58.81 203.37,-68.8 212.99,-68.8 219.46,-68.8 223.31,-64.29 224.55,-58"/>
<polygon fill="black" stroke="black" points="228.05,-57.83 224.5,-47.85 221.05,-57.86 228.05,-57.83"/>
<text text-anchor="middle" x="212.99" y="-82.8" font-family="Helvetica,sans-Serif" font-size="10.00">JAVASCRIPT</text>
<text text-anchor="middle" x="212.99" y="-71.8" font-family="Helvetica,sans-Serif" font-size="10.00">TYPESCRIPT</text>
</g>
<!-- D2 -->
<g id="node4" class="node">
<title>D2</title>
<ellipse fill="none" stroke="black" cx="344.79" cy="-27.4" rx="23.3" ry="23.3"/>
<text text-anchor="middle" x="344.79" y="-23.7" font-family="Helvetica,sans-Serif" font-size="14.00">D2</text>
</g>
<!-- D1&#45;&gt;D2 -->
<g id="edge4" class="edge">
<title>D1&#45;&gt;D2</title>
<path fill="none" stroke="black" d="M236.6,-27.4C257.14,-27.4 287.67,-27.4 310.91,-27.4"/>
<polygon fill="black" stroke="black" points="311,-30.9 321,-27.4 311,-23.9 311,-30.9"/>
<text text-anchor="middle" x="278.89" y="-52.4" font-family="Helvetica,sans-Serif" font-size="10.00">REACT</text>
<text text-anchor="middle" x="278.89" y="-41.4" font-family="Helvetica,sans-Serif" font-size="10.00">ANGULAR</text>
<text text-anchor="middle" x="278.89" y="-30.4" font-family="Helvetica,sans-Serif" font-size="10.00">VUE</text>
</g>
<!-- D2&#45;&gt;D2 -->
<g id="edge5" class="edge">
<title>D2&#45;&gt;D2</title>
<path fill="none" stroke="black" d="M333.28,-47.85C331.33,-58.81 335.16,-68.8 344.79,-68.8 351.26,-68.8 355.11,-64.29 356.35,-58"/>
<polygon fill="black" stroke="black" points="359.85,-57.83 356.29,-47.85 352.85,-57.86 359.85,-57.83"/>
<text text-anchor="middle" x="344.79" y="-93.8" font-family="Helvetica,sans-Serif" font-size="10.00">REACT</text>
<text text-anchor="middle" x="344.79" y="-82.8" font-family="Helvetica,sans-Serif" font-size="10.00">ANGULAR</text>
<text text-anchor="middle" x="344.79" y="-71.8" font-family="Helvetica,sans-Serif" font-size="10.00">VUE</text>
</g>
<!-- D3 -->
<g id="node5" class="node">
<title>D3</title>
<ellipse fill="none" stroke="black" cx="497.59" cy="-27.4" rx="23.3" ry="23.3"/>
<text text-anchor="middle" x="497.59" y="-23.7" font-family="Helvetica,sans-Serif" font-size="14.00">D3</text>
</g>
<!-- D2&#45;&gt;D3 -->
<g id="edge6" class="edge">
<title>D2&#45;&gt;D3</title>
<path fill="none" stroke="black" d="M368.37,-27.4C393.68,-27.4 434.97,-27.4 463.84,-27.4"/>
<polygon fill="black" stroke="black" points="463.86,-30.9 473.86,-27.4 463.86,-23.9 463.86,-30.9"/>
<text text-anchor="middle" x="421.19" y="-52.4" font-family="Helvetica,sans-Serif" font-size="10.00">NODE_JS</text>
<text text-anchor="middle" x="421.19" y="-41.4" font-family="Helvetica,sans-Serif" font-size="10.00">DJANGO</text>
<text text-anchor="middle" x="421.19" y="-30.4" font-family="Helvetica,sans-Serif" font-size="10.00">SPRING_BOOT</text>
</g>
<!-- D3&#45;&gt;D3 -->
<g id="edge7" class="edge">
<title>D3&#45;&gt;D3</title>
<path fill="none" stroke="black" d="M484.73,-47.42C482.33,-58.55 486.62,-68.8 497.59,-68.8 504.96,-68.8 509.31,-64.17 510.64,-57.76"/>
<polygon fill="black" stroke="black" points="514.14,-57.35 510.44,-47.42 507.14,-57.49 514.14,-57.35"/>
<text text-anchor="middle" x="497.59" y="-93.8" font-family="Helvetica,sans-Serif" font-size="10.00">NODE_JS</text>
<text text-anchor="middle" x="497.59" y="-82.8" font-family="Helvetica,sans-Serif" font-size="10.00">DJANGO</text>
<text text-anchor="middle" x="497.59" y="-71.8" font-family="Helvetica,sans-Serif" font-size="10.00">SPRING_BOOT</text>
</g>
<!-- D4 -->
<g id="node6" class="node">
<title>D4</title>
<ellipse fill="none" stroke="black" cx="645.38" cy="-27.4" rx="23.3" ry="23.3"/>
<text text-anchor="middle" x="645.38" y="-23.7" font-family="Helvetica,sans-Serif" font-size="14.00">D4</text>
</g>
<!-- D3&#45;&gt;D4 -->
<g id="edge8" class="edge">
<title>D3&#45;&gt;D4</title>
<path fill="none" stroke="black" d="M521.05,-27.4C545.16,-27.4 583.72,-27.4 611.31,-27.4"/>
<polygon fill="black" stroke="black" points="611.65,-30.9 621.65,-27.4 611.65,-23.9 611.65,-30.9"/>
<text text-anchor="middle" x="571.48" y="-63.4" font-family="Helvetica,sans-Serif" font-size="10.00">SQL</text>
<text text-anchor="middle" x="571.48" y="-52.4" font-family="Helvetica,sans-Serif" font-size="10.00">POSTGRESQL</text>
<text text-anchor="middle" x="571.48" y="-41.4" font-family="Helvetica,sans-Serif" font-size="10.00">MYSQL</text>
<text text-anchor="middle" x="571.48" y="-30.4" font-family="Helvetica,sans-Serif" font-size="10.00">MONGODB</text>
</g>
<!-- D4&#45;&gt;D4 -->
<g id="edge9" class="edge">
<title>D4&#45;&gt;D4</title>
<path fill="none" stroke="black" d="M633.88,-47.85C631.92,-58.81 635.76,-68.8 645.38,-68.8 651.85,-68.8 655.7,-64.29 656.94,-58"/>
<polygon fill="black" stroke="black" points="660.44,-57.83 656.89,-47.85 653.44,-57.86 660.44,-57.83"/>
<text text-anchor="middle" x="645.38" y="-104.8" font-family="Helvetica,sans-Serif" font-size="10.00">SQL</text>
<text text-anchor="middle" x="645.38" y="-93.8" font-family="Helvetica,sans-Serif" font-size="10.00">POSTGRESQL</text>
<text text-anchor="middle" x="645.38" y="-82.8" font-family="Helvetica,sans-Serif" font-size="10.00">MYSQL</text>
<text text-anchor="middle" x="645.38" y="-71.8" font-family="Helvetica,sans-Serif" font-size="10.00">MONGODB</text>
</g>
<!-- D5 -->
<g id="node7" class="node">
<title>D5</title>
<ellipse fill="none" stroke="black" cx="774.18" cy="-63.4" rx="23.3" ry="23.3"/>
<text text-anchor="middle" x="774.18" y="-59.7" font-family="Helvetica,sans-Serif" font-size="14.00">D5</text>
</g>
<!-- D4&#45;&gt;D5 -->
<g id="edge10" class="edge">
<title>D4&#45;&gt;D5</title>
<path fill="none" stroke="black" d="M668.18,-33.59C688.32,-39.3 718.49,-47.87 741.33,-54.35"/>
<polygon fill="black" stroke="black" points="740.66,-57.81 751.24,-57.17 742.58,-51.07 740.66,-57.81"/>
<text text-anchor="middle" x="709.78" y="-54.4" font-family="Helvetica,sans-Serif" font-size="10.00">REST_API</text>
</g>
<!-- D6 -->
<g id="node8" class="node">
<title>D6</title>
<ellipse fill="none" stroke="black" cx="877.97" cy="-27.4" rx="23.31" ry="23.31"/>
<ellipse fill="none" stroke="black" cx="877.97" cy="-27.4" rx="27.3" ry="27.3"/>
<text text-anchor="middle" x="877.97" y="-23.7" font-family="Helvetica,sans-Serif" font-size="14.00">D6</text>
</g>
<!-- D4&#45;&gt;D6 -->
<g id="edge11" class="edge">
<title>D4&#45;&gt;D6</title>
<path fill="none" stroke="black" d="M668.67,-25.11C698.16,-22.37 751.77,-18.38 797.58,-20.4 811.54,-21.01 826.84,-22.23 840.26,-23.48"/>
<polygon fill="black" stroke="black" points="840.25,-27 850.55,-24.48 840.93,-20.03 840.25,-27"/>
<text text-anchor="middle" x="774.18" y="-23.4" font-family="Helvetica,sans-Serif" font-size="10.00">GIT</text>
</g>
<!-- D5&#45;&gt;D5 -->
<g id="edge12" class="edge">
<title>D5&#45;&gt;D5</title>
<path fill="none" stroke="black" d="M765.4,-85.12C764.31,-95.57 767.24,-104.8 774.18,-104.8 778.73,-104.8 781.56,-100.82 782.65,-95.14"/>
<polygon fill="black" stroke="black" points="786.15,-95.22 782.96,-85.12 779.16,-95.01 786.15,-95.22"/>
<text text-anchor="middle" x="774.18" y="-107.8" font-family="Helvetica,sans-Serif" font-size="10.00">REST_API</text>
</g>
<!-- D5&#45;&gt;D6 -->
<g id="edge13" class="edge">
<title>D5&#45;&gt;D6</title>
<path fill="none" stroke="black" d="M796.77,-55.76C809.98,-51.09 827.19,-45 842.28,-39.67"/>
<polygon fill="black" stroke="black" points="843.57,-42.92 851.83,-36.29 841.23,-36.33 843.57,-42.92"/>
<text text-anchor="middle" x="824.08" y="-51.4" font-family="Helvetica,sans-Serif" font-size="10.00">GIT</text>
</g>
<!-- D6&#45;&gt;D6 -->
<g id="edge14" class="edge">
<title>D6&#45;&gt;D6</title>
<path fill="none" stroke="black" d="M868.31,-53.07C867.64,-63.74 870.86,-72.8 877.97,-72.8 882.64,-72.8 885.63,-68.9 886.95,-63.2"/>
<polygon fill="black" stroke="black" points="890.45,-63.28 887.64,-53.07 883.47,-62.81 890.45,-63.28"/>
<text text-anchor="middle" x="877.97" y="-75.8" font-family="Helvetica,sans-Serif" font-size="10.00">GIT</text>
</g>
</g>
</svg>
